<svg width="1200" height="500" viewBox="0 0 1200 500" xmlns="http://www.w3.org/2000/svg" role="img" aria-label="Cancer awareness abstract ribbon banner">
  <defs>
    <linearGradient id="g" x1="0" y1="0" x2="1" y2="1">
      <stop offset="0%" stop-color="#fca5a5"/>
      <stop offset="50%" stop-color="#f472b6"/>
      <stop offset="100%" stop-color="#a78bfa"/>
    </linearGradient>
    <filter id="soft" x="-20%" y="-20%" width="140%" height="140%">
      <feGaussianBlur stdDeviation="8"/>
    </filter>
  </defs>
  <rect width="1200" height="500" rx="24" fill="#fff"/>
  <g filter="url(#soft)">
    <path d="M0,360 C200,260 400,420 600,320 C800,220 950,330 1200,260 L1200,500 L0,500 Z" fill="#f3f4f6"/>
  </g>
  <path d="M-20,260 C180,160 360,300 560,220 C760,140 980,280 1220,160" stroke="url(#g)" stroke-width="40" fill="none"/>
  <path d="M80,150 C180,70 300,140 360,220 C420,300 500,370 620,320" stroke="#f472b6" stroke-width="32" fill="none" opacity="0.6"/>
  <text x="64" y="92" font-size="36" font-family="system-ui, -apple-system, Segoe UI, Roboto" fill="#111827">Cancer Awareness &amp; Support</text>
  <text x="64" y="130" font-size="20" font-family="system-ui, -apple-system, Segoe UI, Roboto" fill="#6b7280">Together, we make a difference</text>
</svg>